<?xml version="1.0" encoding="UTF-8" standalone="no"?>
<svg
   xmlns:dc="http://purl.org/dc/elements/1.1/"
   xmlns:cc="http://creativecommons.org/ns#"
   xmlns:rdf="http://www.w3.org/1999/02/22-rdf-syntax-ns#"
   xmlns:svg="http://www.w3.org/2000/svg"
   xmlns="http://www.w3.org/2000/svg"
   id="svg25"
   height="21.290001mm"
   width="21.26mm"
   version="1.0">
  <metadata
     id="metadata29">
    <rdf:RDF>
      <cc:Work
         rdf:about="">
        <dc:format>image/svg+xml</dc:format>
        <dc:type
           rdf:resource="http://purl.org/dc/dcmitype/StillImage" />
      </cc:Work>
    </rdf:RDF>
  </metadata>
  <defs
     id="defs3">
    <pattern
       y="0"
       x="0"
       height="6"
       width="6"
       patternUnits="userSpaceOnUse"
       id="EMFhbasepattern" />
  </defs>
  <path
     id="path5"
     d="  M 37.851441,0.059923125   C 16.978219,0.059923125 0.059923125,16.978219 0.059923125,37.851441   C 0.059923125,58.724663 16.978219,75.622984 37.851441,75.622984   C 58.724663,75.622984 75.622984,58.724663 75.622984,37.851441   C 75.622984,16.978219 58.724663,0.059923125 37.851441,0.059923125   z "
     style="fill:#afafaf;fill-rule:evenodd;fill-opacity:1;stroke:none;" />
  <path
     id="path7"
     d="  M 37.771543,1.5580013   C 17.777194,1.5580013 1.5580013,17.777194 1.5580013,37.771543   C 1.5580013,57.765893 17.777194,73.965111 37.771543,73.965111   C 57.765893,73.965111 73.965111,57.765893 73.965111,37.771543   C 73.965111,17.777194 57.765893,1.5580013 37.771543,1.5580013   z "
     style="fill:#dfdfdf;fill-rule:evenodd;fill-opacity:1;stroke:none;" />
  <path
     id="path9"
     d="  M 37.771543,1.5580013   C 17.777194,1.5580013 1.5580013,17.777194 1.5580013,37.771543   C 1.5580013,57.765893 17.777194,73.965111 37.771543,73.965111   C 57.765893,73.965111 73.965111,57.765893 73.965111,37.771543   C 73.965111,17.777194 57.765893,1.5580013 37.771543,1.5580013   z "
     style="fill:#009108;fill-rule:evenodd;fill-opacity:1;stroke:none;" />
  <path
     id="path11"
     d="  M 37.851441,6.3918   C 20.473734,6.3918 6.3918,20.473734 6.3918,37.851441   C 6.3918,55.229147 20.473734,69.311081 37.851441,69.311081   C 55.229147,69.311081 69.311081,55.229147 69.311081,37.851441   C 69.311081,20.473734 55.229147,6.3918 37.851441,6.3918   z "
     style="fill:#91da15;fill-rule:evenodd;fill-opacity:1;stroke:none;" />
  <path
     id="path13"
     d="  M 9.1282894,39.749006   C 9.1282894,22.870659 22.870659,9.1282894 39.749006,9.1282894   C 47.598936,9.1282894 54.64989,12.264266 60.142843,17.357732   C 54.64989,11.085778 46.799961,7.5503138 37.771543,7.5503138   C 20.893196,7.5503138 7.5503138,20.893196 7.5503138,37.771543   C 7.5503138,46.799961 11.085778,54.64989 17.357732,60.142843   C 12.264266,54.64989 9.1282894,47.598936 9.1282894,39.749006   z "
     style="fill:#dfdfdf;fill-rule:evenodd;fill-opacity:1;stroke:none;" />
  <path
     id="path15"
     d="  M 37.851441,0.059923125   C 16.978219,0.059923125 0.059923125,16.978219 0.059923125,37.851441   C 0.059923125,58.724663 16.978219,75.622984 37.851441,75.622984   C 58.724663,75.622984 75.622984,58.724663 75.622984,37.851441   C 75.622984,16.978219 58.724663,0.059923125 37.851441,0.059923125   z "
     style="fill:#afafaf;fill-rule:evenodd;fill-opacity:1;stroke:none;" />
  <path
     id="path17"
     d="  M 37.771543,1.5580013   C 17.777194,1.5580013 1.5580013,17.777194 1.5580013,37.771543   C 1.5580013,57.765893 17.777194,73.965111 37.771543,73.965111   C 57.765893,73.965111 73.965111,57.765893 73.965111,37.771543   C 73.965111,17.777194 57.765893,1.5580013 37.771543,1.5580013   z "
     style="fill:#dfdfdf;fill-rule:evenodd;fill-opacity:1;stroke:none;" />
  <path
     id="path19"
     d="  M 37.771543,1.5580013   C 17.777194,1.5580013 1.5580013,17.777194 1.5580013,37.771543   C 1.5580013,57.765893 17.777194,73.965111 37.771543,73.965111   C 57.765893,73.965111 73.965111,57.765893 73.965111,37.771543   C 73.965111,17.777194 57.765893,1.5580013 37.771543,1.5580013   z "
     style="fill:#009108;fill-rule:evenodd;fill-opacity:1;stroke:none;" />
  <path
     id="path21"
     d="  M 37.851441,6.3918   C 20.473734,6.3918 6.3918,20.473734 6.3918,37.851441   C 6.3918,55.229147 20.473734,69.311081 37.851441,69.311081   C 55.229147,69.311081 69.311081,55.229147 69.311081,37.851441   C 69.311081,20.473734 55.229147,6.3918 37.851441,6.3918   z "
     style="fill:#91da15;fill-rule:evenodd;fill-opacity:1;stroke:none;" />
  <path
     id="path23"
     d="  M 9.1282894,39.749006   C 9.1282894,22.870659 22.870659,9.1282894 39.749006,9.1282894   C 47.598936,9.1282894 54.64989,12.264266 60.142843,17.357732   C 54.64989,11.085778 46.799961,7.5503138 37.771543,7.5503138   C 20.893196,7.5503138 7.5503138,20.893196 7.5503138,37.771543   C 7.5503138,46.799961 11.085778,54.64989 17.357732,60.142843   C 12.264266,54.64989 9.1282894,47.598936 9.1282894,39.749006   z "
     style="fill:#dfdfdf;fill-rule:evenodd;fill-opacity:1;stroke:none;" />
</svg>
